# xmcd
# Track frame offsets:
# 150
# 13195
# 28730
# 47940
# 59572
# 82325
# 93872
# 106465
# 120160
# 133732
# 148415
# 160662
# 174627
# 199292
#
# Disc length: 2857 seconds
# Revision: 0
# Processed by: cddbd v1.4PL0 Copyright (c) Steve Scherf et al.
# Submitted via: VisiTrax 2.9.3.171 - For more info visit www.synapsa.com
#
DISCID=cd0b270e
DTITLE=Various Artist - Mr Music Country 1-99
DYEAR=1900
DGENRE=
TTITLE0=Curtis Wayne - Bigger Man Than Me
TTITLE1=Red Meat - Deep Water
TTITLE2=Kimmie Rhodes with Waylon Jennings - Be Mine
TTITLE3=Kelly Spinks - Tonight I'm Going Home With an Angel
TTITLE4=Shane Worley - Mirrors Don't Lie
TTITLE5=Montana Rose with Kenny Williams - Jackson Saturday Night
TTITLE6=Ken Holloway - Hoedown
TTITLE7=Benny Berry - Helen's Arms
TTITLE8=Mike Ward - Love Why Do You Hate Me
TTITLE9=Becky Hobbs - Don't Cry For Me
TTITLE10=Rayburn Anthony - Do I Dare Believe
TTITLE11=Erin hay - Honky Tonk Heaven
TTITLE12=Ben Ginslinger - Jersey Girl
TTITLE13=Justin Trevino - Texas Honky-Tonk
EXTD=
EXTT0=
EXTT1=
EXTT2=
EXTT3=
EXTT4=
EXTT5=
EXTT6=
EXTT7=
EXTT8=
EXTT9=
EXTT10=
EXTT11=
EXTT12=
EXTT13=
PLAYORDER=
